<?xml version="1.0" encoding="UTF-8"?>
<svg version="1.1" xmlns="http://www.w3.org/2000/svg" width="225" height="225">
<path d="M0 0 C0.64461182 -0.00014603 1.28922363 -0.00029205 1.95336914 -0.0004425 C4.06351196 0.00024878 6.17356419 0.00800406 8.28369141 0.01586914 C9.7548518 0.01773611 11.22601283 0.0191587 12.69717407 0.02015686 C16.55391175 0.02396006 20.41061129 0.03377141 24.26733398 0.04486084 C28.90299186 0.05692913 33.53866255 0.06148767 38.17433167 0.06731415 C45.20299888 0.07698448 52.23158252 0.09615635 59.26025391 0.11352539 C59.26025391 11.00352539 59.26025391 21.89352539 59.26025391 33.11352539 C54.90064453 33.1509082 50.54103516 33.18829102 46.04931641 33.22680664 C42.54903801 33.26497646 39.04882012 33.3060487 35.54859924 33.34906769 C31.8670565 33.39352614 28.18562225 33.43300147 24.50390625 33.45996094 C20.95048422 33.4861807 17.39747487 33.52671059 13.84431076 33.57671165 C11.84500274 33.601246 9.84553442 33.61137654 7.84609985 33.62117004 C-4.50154217 33.81819142 -15.53994131 36.34047768 -24.78271484 45.03540039 C-33.40332971 54.51991483 -36.03174896 63.51195437 -36.05859375 76.09765625 C-36.07366219 77.72315903 -36.07366219 77.72315903 -36.08903503 79.38150024 C-36.11981324 82.94711804 -36.13688749 86.51266093 -36.15380859 90.07836914 C-36.17252452 92.55701845 -36.19209826 95.03566143 -36.2124939 97.51429749 C-36.263776 104.02601377 -36.30342287 110.5377507 -36.34063721 117.04956055 C-36.37964938 123.69919407 -36.43178273 130.34873394 -36.48193359 136.99829102 C-36.57864652 150.03664123 -36.66344058 163.07504059 -36.73974609 176.11352539 C-40.40135353 177.11329637 -43.66705767 177.22787929 -47.47412109 177.21118164 C-48.76962891 177.20795898 -50.06513672 177.20473633 -51.39990234 177.20141602 C-52.76318427 177.19306137 -54.12646552 177.18459643 -55.48974609 177.17602539 C-56.86865074 177.17100707 -58.24755713 177.16644474 -59.62646484 177.16235352 C-62.99760268 177.15056632 -66.36865237 177.13411174 -69.73974609 177.11352539 C-69.81004912 162.19629148 -69.86283804 147.27907048 -69.89518261 132.36170578 C-69.91060471 125.43419584 -69.93160425 118.50678927 -69.96606445 111.5793457 C-69.99933444 104.8879378 -70.01662401 98.1966592 -70.02437782 91.5051651 C-70.02990018 88.95843064 -70.04068379 86.41170171 -70.05693626 83.86501312 C-70.07886679 80.28463797 -70.08170645 76.7046996 -70.08032227 73.12426758 C-70.09110809 72.08272522 -70.10189392 71.04118286 -70.11300659 69.96807861 C-70.07004913 59.62933407 -67.79975699 50.08374973 -62.98974609 40.92602539 C-62.63904053 40.24531982 -62.28833496 39.56461426 -61.92700195 38.86328125 C-59.06809347 33.45451804 -55.85732192 28.6561413 -51.73974609 24.11352539 C-51.10939453 23.38004883 -50.47904297 22.64657227 -49.82958984 21.89086914 C-37.31001261 8.24804012 -18.48074068 -0.03540372 0 0 Z " fill="#5AEBC4" transform="translate(69.73974609375,-0.113525390625)"/>
<path d="M0 0 C1.3912047 0.00025098 2.78241565 0.0058083 4.17358398 0.01586914 C4.82129761 0.01687622 5.46901123 0.0178833 6.13635254 0.0189209 C8.56414552 0.02416696 10.99191334 0.03812814 13.41967773 0.05102539 C21.55624023 0.08196289 21.55624023 0.08196289 29.85717773 0.11352539 C29.85717773 11.00352539 29.85717773 21.89352539 29.85717773 33.11352539 C18.63717773 33.11352539 7.41717773 33.11352539 -4.14282227 33.11352539 C-4.16344727 27.85415039 -4.18407227 22.59477539 -4.20532227 17.17602539 C-4.21442627 15.51450439 -4.22353027 13.8529834 -4.23291016 12.14111328 C-4.23540771 10.84423584 -4.23790527 9.5473584 -4.24047852 8.21118164 C-4.24815247 7.18244934 -4.24815247 7.18244934 -4.25598145 6.13293457 C-4.25629281 4.45937308 -4.20505064 2.78592959 -4.14282227 1.11352539 C-3.14282227 0.11352539 -3.14282227 0.11352539 0 0 Z " fill="#5AEAC4" transform="translate(148.142822265625,191.886474609375)"/>
<path d="M0 0 C1.3488873 0.00025096 2.69778106 0.00580724 4.04663086 0.01586914 C5.99194702 0.01961548 5.99194702 0.01961548 7.9765625 0.0234375 C10.46884399 0.03709351 10.46884399 0.03709351 13.01147461 0.05102539 C18.27084961 0.07165039 23.53022461 0.09227539 28.94897461 0.11352539 C28.94897461 11.33352539 28.94897461 22.55352539 28.94897461 34.11352539 C23.68959961 34.13415039 18.43022461 34.15477539 13.01147461 34.17602539 C11.34995361 34.18512939 9.68843262 34.1942334 7.9765625 34.20361328 C6.67968506 34.20611084 5.38280762 34.2086084 4.04663086 34.21118164 C3.36080933 34.21629761 2.67498779 34.22141357 1.96838379 34.22668457 C0.2948223 34.22699593 -1.37862119 34.17575376 -3.05102539 34.11352539 C-4.72776188 32.4367889 -4.17890356 30.38497464 -4.18997192 28.14697266 C-4.18794769 27.45531006 -4.18592346 26.76364746 -4.18383789 26.05102539 C-4.18479462 25.34453857 -4.18575134 24.63805176 -4.18673706 23.91015625 C-4.18741872 22.41381746 -4.18556544 20.91747572 -4.18139648 19.42114258 C-4.17604796 17.12322382 -4.1813419 14.82550053 -4.18774414 12.52758789 C-4.18708336 11.07706662 -4.18580219 9.62654548 -4.18383789 8.17602539 C-4.18586212 7.48436279 -4.18788635 6.7927002 -4.18997192 6.08007812 C-4.16066767 0.15481399 -4.16066767 0.15481399 0 0 Z " fill="#5BE9C3" transform="translate(196.051025390625,94.886474609375)"/>
<path d="M0 0 C1.3488873 0.00025096 2.69778106 0.00580724 4.04663086 0.01586914 C5.99194702 0.01961548 5.99194702 0.01961548 7.9765625 0.0234375 C10.46884399 0.03709351 10.46884399 0.03709351 13.01147461 0.05102539 C18.27084961 0.07165039 23.53022461 0.09227539 28.94897461 0.11352539 C28.94897461 11.33352539 28.94897461 22.55352539 28.94897461 34.11352539 C23.87522461 34.13415039 18.80147461 34.15477539 13.57397461 34.17602539 C11.97376465 34.18512939 10.37355469 34.1942334 8.72485352 34.20361328 C6.84419189 34.20735962 6.84419189 34.20735962 4.92553711 34.21118164 C3.63728027 34.21641846 2.34902344 34.22165527 1.02172852 34.22705078 C-2.05102539 34.11352539 -2.05102539 34.11352539 -4.05102539 33.11352539 C-4.07567931 28.57454834 -4.09386328 24.03560996 -4.10595703 19.49658203 C-4.11099679 17.95132773 -4.11782859 16.40607823 -4.12646484 14.86083984 C-4.13854615 12.6442751 -4.14425712 10.42777321 -4.14868164 8.21118164 C-4.15384293 7.51638199 -4.15900421 6.82158234 -4.1643219 6.10572815 C-4.16451816 4.44123209 -4.11291668 2.7768704 -4.05102539 1.11352539 C-3.05102539 0.11352539 -3.05102539 0.11352539 0 0 Z " fill="#57EAC5" transform="translate(196.051025390625,143.886474609375)"/>
<path d="M0 0 C10.89 0 21.78 0 33 0 C33 10.89 33 21.78 33 33 C27.575625 33.020625 22.15125 33.04125 16.5625 33.0625 C14.84877197 33.071604 13.13504395 33.08070801 11.36938477 33.09008789 C10.01839273 33.09300716 8.66739981 33.09555569 7.31640625 33.09765625 C6.60899292 33.10277222 5.90157959 33.10788818 5.17272949 33.11315918 C3.44807383 33.11347032 1.72353162 33.06225761 0 33 C-1.87903248 31.12096752 -1.13053475 27.9119394 -1.1328125 25.41015625 C-1.13376923 24.7504332 -1.13472595 24.09071014 -1.13571167 23.41099548 C-1.13639336 22.01300969 -1.13453986 20.61502076 -1.13037109 19.21704102 C-1.12503106 17.07496018 -1.13031199 14.93308983 -1.13671875 12.79101562 C-1.1360578 11.43489537 -1.13477629 10.07877524 -1.1328125 8.72265625 C-1.13168457 7.48265869 -1.13055664 6.24266113 -1.12939453 4.96508789 C-1 2 -1 2 0 0 Z " fill="#59EAC5" transform="translate(97,192)"/>
<path d="M0 0 C10.89 0 21.78 0 33 0 C33.185625 5.259375 33.37125 10.51875 33.5625 15.9375 C33.62381104 17.599021 33.68512207 19.26054199 33.74829102 20.97241211 C33.79139404 22.26928955 33.83449707 23.56616699 33.87890625 24.90234375 C33.90561401 25.58816528 33.93232178 26.27398682 33.95983887 26.98059082 C34.01242109 28.65295433 34.01191567 30.32685248 34 32 C33 33 33 33 29.85717773 33.11352539 C28.46597304 33.11327441 27.07476209 33.10771709 25.68359375 33.09765625 C25.03588013 33.09664917 24.3881665 33.09564209 23.7208252 33.09460449 C21.29303221 33.08935843 18.86526439 33.07539725 16.4375 33.0625 C8.3009375 33.0315625 8.3009375 33.0315625 0 33 C0 22.11 0 11.22 0 0 Z " fill="#5DEAC4" transform="translate(144,0)"/>
<path d="M0 0 C10.89 0 21.78 0 33 0 C33 10.89 33 21.78 33 33 C22.11 33 11.22 33 0 33 C-0.185625 27.92625 -0.37125 22.8525 -0.5625 17.625 C-0.62381104 16.02479004 -0.68512207 14.42458008 -0.74829102 12.77587891 C-0.79139404 11.52210449 -0.83449707 10.26833008 -0.87890625 8.9765625 C-0.9260376 7.68830566 -0.97316895 6.40004883 -1.02172852 5.07275391 C-1 2 -1 2 0 0 Z " fill="#5BEAC4" transform="translate(49,192)"/>
<path d="M0 0 C1.88066162 0.06465454 1.88066162 0.06465454 3.79931641 0.13061523 C5.39952637 0.19192627 6.99973633 0.2532373 8.6484375 0.31640625 C13.7221875 0.50203125 18.7959375 0.68765625 24.0234375 0.87890625 C24.0234375 11.76890625 24.0234375 22.65890625 24.0234375 33.87890625 C13.1334375 33.87890625 2.2434375 33.87890625 -8.9765625 33.87890625 C-8.9765625 22.98890625 -8.9765625 12.09890625 -8.9765625 0.87890625 C-5.98077446 -0.61898777 -3.33248831 -0.1219203 0 0 Z " fill="#5AEAC4" transform="translate(200.9765625,47.12109375)"/>
<path d="M0 0 C10.89 0 21.78 0 33 0 C33 10.89 33 21.78 33 33 C22.11 33 11.22 33 0 33 C0 22.11 0 11.22 0 0 Z " fill="#5BEAC4" transform="translate(192,192)"/>
<path d="M0 0 C10.89 0 21.78 0 33 0 C33 10.89 33 21.78 33 33 C22.11 33 11.22 33 0 33 C0 22.11 0 11.22 0 0 Z " fill="#5BEAC4" transform="translate(0,192)"/>
<path d="M0 0 C10.89 0 21.78 0 33 0 C33 10.89 33 21.78 33 33 C22.11 33 11.22 33 0 33 C0 22.11 0 11.22 0 0 Z " fill="#5BEAC4" transform="translate(192,0)"/>
<path d="M0 0 C0.33 0 0.66 0 1 0 C1 10.89 1 21.78 1 33 C-19.13 33 -39.26 33 -60 33 C-58 31 -58 31 -55.59555054 30.75949097 C-54.08331406 30.7661528 -54.08331406 30.7661528 -52.54052734 30.77294922 C-51.39949554 30.77310028 -50.25846375 30.77325134 -49.08285522 30.77340698 C-47.22813095 30.78889084 -47.22813095 30.78889084 -45.3359375 30.8046875 C-43.4424205 30.80893234 -43.4424205 30.80893234 -41.51065063 30.81326294 C-38.15353056 30.82257869 -34.79668088 30.84055165 -31.43963623 30.8626709 C-28.01446878 30.8831245 -24.58927341 30.8922636 -21.1640625 30.90234375 C-14.44263329 30.92443542 -7.72133227 30.95793623 -1 31 C-1.00523682 30.09644775 -1.01047363 29.19289551 -1.01586914 28.26196289 C-1.03287686 24.92048511 -1.04543333 21.57905308 -1.05493164 18.23754883 C-1.05997101 16.78929927 -1.06680253 15.34105483 -1.07543945 13.89282227 C-1.08752247 11.81525412 -1.09323211 9.73775303 -1.09765625 7.66015625 C-1.10289307 6.40855713 -1.10812988 5.15695801 -1.11352539 3.86743164 C-1 1 -1 1 0 0 Z " fill="#6CD9BC" transform="translate(128,0)"/>
<path d="M0 0 C0.33 0.66 0.66 1.32 1 2 C0.14453125 3.6640625 0.14453125 3.6640625 -1.1875 5.625 C-3.80750558 9.62087443 -5.92550554 13.69734483 -8 18 C-8.66 18 -9.32 18 -10 18 C-8.28747108 11.49239011 -4.78309318 4.78309318 0 0 Z " fill="#61DCBB" transform="translate(15,28)"/>
<path d="M0 0 C0.33 0.99 0.66 1.98 1 3 C3.01508358 3.73323796 3.01508358 3.73323796 5 4 C3.02 4.99 1.04 5.98 -1 7 C-1.33 5.02 -1.66 3.04 -2 1 C-1.34 0.67 -0.68 0.34 0 0 Z " fill="#6BE7C7" transform="translate(50,193)"/>
<path d="M0 0 C0.66 0.33 1.32 0.66 2 1 C-2.455 3.97 -2.455 3.97 -7 7 C-6 3 -6 3 -3.0625 1.1875 C-2.051875 0.795625 -1.04125 0.40375 0 0 Z " fill="#62DAB8" transform="translate(52,37)"/>
<path d="M0 0 C-0.33 1.32 -0.66 2.64 -1 4 C-3.76264289 4.59732819 -6.16032769 5 -9 5 C-7.87926138 4.16094435 -6.75325453 3.32892169 -5.625 2.5 C-4.99851562 2.0359375 -4.37203125 1.571875 -3.7265625 1.09375 C-2 0 -2 0 0 0 Z " fill="#64DDBB" transform="translate(37,10)"/>
</svg>
